# xmcd
#
# Track frame offsets: 
#        150
#        12719
#        32194
#        50900
#        65817
#        85584
#        104395
#        121336
#        134765
#        150827
#        169579
#        195193
#        211048
#
# Disc length: 3102 seconds
#
# Revision: 0
# Processed by: cddbd v1.5.2PL0 Copyright (c) Steve Scherf et al.
# Submitted via: ExactAudioCopy v0.95b4
#
DISCID=ae0c1c0d
DTITLE=Brian Houston - Sugar Queen
DYEAR=2007
DGENRE=Rock
TTITLE0=Days Of Pearly Spencer
TTITLE1=End of the Beginning
TTITLE2=Childish Things
TTITLE3=Woman's Touch
TTITLE4=Sugar Queen
TTITLE5=These Days
TTITLE6=Ballad of Matthew Shepard
TTITLE7=Chase The Devil
TTITLE8=Fields Of Heaven
TTITLE9=Out Of The Ruins
TTITLE10=Red Badge Of Courage
TTITLE11=New Year Baby
TTITLE12=Good News Junkie
EXTD=
EXTT0=
EXTT1=
EXTT2=
EXTT3=
EXTT4=
EXTT5=
EXTT6=
EXTT7=
EXTT8=
EXTT9=
EXTT10=
EXTT11=
EXTT12=
PLAYORDER=
